# xmcd CD database file
#
# Track frame offsets:
#	150
#	14326
#	42590
#	67700
#	101667
#	116433
#	146544
#	168468
#	195077
#	222152
#	239379
#
# Disc length: 3772 seconds
#
# Revision: 0
# Processed by: cddbd v1.5.2PL0 Copyright (c) Steve Scherf et al.
# Submitted via: CDex 1.70beta2
#
DISCID=8f0eba0b
DTITLE=Django's Cadillac - Live
DYEAR=2007
DGENRE=Jazz
TTITLE0=Gonna Have a Party
TTITLE1=Lullabye of the Leaves
TTITLE2=Round Midnight
TTITLE3=Blue Rondo
TTITLE4=Scotch and Soda
TTITLE5=Fever
TTITLE6=Mercy, Mercy, Mercy
TTITLE7=Formosa Please
TTITLE8=Angel Eyes
TTITLE9=Anna
TTITLE10=Moaning
EXTD=YEAR: 2007
EXTT0=
EXTT1=
EXTT2=
EXTT3=
EXTT4=
EXTT5=
EXTT6=
EXTT7=
EXTT8=
EXTT9=
EXTT10=
PLAYORDER=
